<svg xmlns="http://www.w3.org/2000/svg" viewBox="0 0 200 200" fill="none">
  <!-- Halo rose -->
  <circle cx="100" cy="100" r="85" fill="url(#lunaHalo)" opacity="0.3"/>

  <!-- Corps croissant de lune rose -->
  <!-- Cercle principal -->
  <circle cx="105" cy="98" r="62" fill="url(#lunaBody)"/>
  <!-- Cercle qui découpe le croissant -->
  <circle cx="130" cy="90" r="50" fill="#1a1535"/>

  <!-- Reflet brillant -->
  <ellipse cx="78" cy="72" rx="10" ry="16" fill="white" opacity="0.22" transform="rotate(-20,78,72)"/>

  <!-- Yeux -->
  <circle cx="76" cy="96" r="9" fill="#fff0f5"/>
  <circle cx="78" cy="98" r="5.5" fill="#8b2252"/>
  <circle cx="81" cy="95" r="2.2" fill="white"/>

  <circle cx="102" cy="90" r="9" fill="#fff0f5"/>
  <circle cx="104" cy="92" r="5.5" fill="#8b2252"/>
  <circle cx="107" cy="89" r="2.2" fill="white"/>

  <!-- Sourcils doux -->
  <path d="M69 87 Q76 83 83 87" stroke="#c06090" stroke-width="1.8" stroke-linecap="round" fill="none"/>
  <path d="M95 81 Q102 77 109 81" stroke="#c06090" stroke-width="1.8" stroke-linecap="round" fill="none"/>

  <!-- Sourire -->
  <path d="M72 110 Q89 120 106 112" stroke="#c06090" stroke-width="2.2" stroke-linecap="round" fill="none"/>

  <!-- Joues roses -->
  <ellipse cx="63" cy="106" rx="8" ry="5" fill="#ffb3d1" opacity="0.6"/>
  <ellipse cx="108" cy="102" rx="7" ry="4.5" fill="#ffb3d1" opacity="0.5"/>

  <!-- Étoiles décoratives -->
  <path d="M42 42 L44 37 L46 42 L51 44 L46 46 L44 51 L42 46 L37 44Z" fill="#ffd166" opacity="0.9"/>
  <path d="M148 32 L150 28 L152 32 L156 34 L152 36 L150 40 L148 36 L144 34Z" fill="#ffb3d1" opacity="0.85"/>
  <circle cx="158" cy="68" r="3" fill="#ffd166" opacity="0.7"/>
  <circle cx="38" cy="75" r="2" fill="#ffb3d1" opacity="0.6"/>
  <path d="M138 148 L140 144 L142 148 L146 150 L142 152 L140 156 L138 152 L134 150Z" fill="#ffd166" opacity="0.7"/>
  <circle cx="55" cy="152" r="2.5" fill="#ffb3d1" opacity="0.5"/>

  <defs>
    <radialGradient id="lunaHalo" cx="50%" cy="50%" r="50%">
      <stop offset="0%" stop-color="#ff80b5"/>
      <stop offset="100%" stop-color="#ff80b5" stop-opacity="0"/>
    </radialGradient>
    <radialGradient id="lunaBody" cx="35%" cy="30%" r="70%">
      <stop offset="0%" stop-color="#ffd6e8"/>
      <stop offset="50%" stop-color="#ff80b5"/>
      <stop offset="100%" stop-color="#d4487a"/>
    </radialGradient>
  </defs>
</svg>
