<svg xmlns="http://www.w3.org/2000/svg" viewBox="0 0 200 200" fill="none">
  <circle cx="100" cy="100" r="85" fill="#ff6b8a" opacity="0.08"/>
  <circle cx="100" cy="100" r="55" fill="#ff6b8a" opacity="0.07"/>
  <path d="M100,135 C100,135 45,85 45,55 C45,27 72,15 100,40 C128,15 155,27 155,55 C155,85 100,135 100,135 Z" fill="#ff6b8a"/>
  <path d="M72,32 C78,20 90,16 96,24" stroke="white" stroke-width="3" fill="none" stroke-linecap="round" opacity="0.5"/>
  <circle cx="82" cy="62" r="8" fill="white"/>
  <circle cx="118" cy="62" r="8" fill="white"/>
  <circle cx="84" cy="63" r="5" fill="#8b1a3a"/>
  <circle cx="120" cy="63" r="5" fill="#8b1a3a"/>
  <circle cx="86" cy="61" r="2" fill="white"/>
  <circle cx="122" cy="61" r="2" fill="white"/>
  <path d="M74 52 Q82 47 90 51" stroke="#c04060" stroke-width="2" fill="none" stroke-linecap="round"/>
  <path d="M110 51 Q118 47 126 52" stroke="#c04060" stroke-width="2" fill="none" stroke-linecap="round"/>
  <path d="M86 76 Q100 88 114 76" stroke="#c04060" stroke-width="2.5" fill="none" stroke-linecap="round"/>
  <ellipse cx="68" cy="72" rx="9" ry="6" fill="#ffb3c6" opacity="0.6"/>
  <ellipse cx="132" cy="72" rx="9" ry="6" fill="#ffb3c6" opacity="0.6"/>
  <circle cx="38" cy="42" r="3" fill="#ff6b8a" opacity="0.7"/>
  <circle cx="162" cy="38" r="2" fill="#ffb3c6" opacity="0.6"/>
  <circle cx="45" cy="140" r="2.5" fill="#ffb3c6" opacity="0.4"/>
</svg>
